<svg xmlns="http://www.w3.org/2000/svg" viewBox="0.0064245667308568954 0.004240811802446842 120.93933868408203 74.48152160644531"><path d="M35.3 73.67a14.73 14.73 0 0 1-18.72-9L.82 19.54A14.73 14.73 0 0 1 9.84.82a14.73 14.73 0 0 1 18.72 9L44.33 55a14.74 14.74 0 0 1-9.03 18.67zM85.65 73.67a14.73 14.73 0 0 0 18.72-9l15.76-45.11a14.73 14.73 0 0 0-9-18.72 14.73 14.73 0 0 0-18.72 9L76.62 55a14.74 14.74 0 0 0 9.03 18.67z" fill="#4D97FF"></path><path d="M104.37 64.65a14.75 14.75 0 0 1-18.73 9 14.32 14.32 0 0 1-6-4c-6.32-5.49-10.27-12.88-19.2-15.23-8.94 2.35-12.89 9.74-19.21 15.23a14.32 14.32 0 0 1-6 4 14.75 14.75 0 0 1-18.73-9L6 34.2a32.86 32.86 0 0 0 7.48 9.89c8.28 7.15 18.52.08 25-6.15l.69-.68C45.4 31 50.8 24.08 60.48 23.43c9.67.65 15.07 7.57 21.4 13.83l.68.68c6.44 6.23 16.68 13.3 25 6.15A32.69 32.69 0 0 0 115 34.2z" fill="#3377FF"></path></svg>